<svg width="110" height="135" viewBox="0 0 110 135" fill="none" xmlns="http://www.w3.org/2000/svg">
<path d="M44.1086 51.0353L30.3506 55.2345L29.999 54.1251L43.937 49.5312C44.0151 49.9609 44.0737 50.3945 44.1011 50.8321C44.1011 50.8985 44.1047 50.9689 44.1086 51.0353Z" fill="black"/>
<path d="M58.9796 90.246C58.421 90.3437 57.8585 90.4257 57.2882 90.4921C57.1632 89.7499 56.9874 89.0116 56.7608 88.2929C56.296 86.6288 55.5186 85.0702 54.4678 83.6991C53.3116 82.1796 52.4483 80.453 51.9326 78.6132C51.8897 78.4726 51.8545 78.3476 51.8194 78.2343L51.7881 78.1171H51.7842C51.292 76.4491 51.0889 74.7109 51.1944 72.9726C51.2959 71.2499 51.0733 69.5234 50.5264 67.8828C50.2412 66.8867 49.8467 65.9258 49.3584 65.0156L49.3232 64.9531V64.9492C48.9951 64.375 48.6318 63.8203 48.2334 63.289C47.0772 61.7695 46.2178 60.0507 45.6982 58.2148V58.1992L45.6826 58.1445L45.6631 58.0859C45.0928 56.3047 44.8545 54.4297 44.9639 52.5625C44.9795 51.9805 44.9951 51.418 44.9521 50.7773H44.9561C44.9209 50.2695 44.8545 49.7617 44.7568 49.2617C44.7334 49.1484 44.71 49.0313 44.6865 48.9102L46.3545 48.543C46.3662 48.6055 46.3819 48.6641 46.3936 48.7227H46.3897C46.4951 49.2344 46.5733 49.75 46.628 50.2657C46.6944 51.0469 46.71 51.8282 46.6709 52.6095C46.5655 54.3283 46.792 56.0548 47.335 57.6915L47.378 57.8204V57.8321V57.8282C47.8389 59.4454 48.6046 60.9649 49.6241 62.3009C50.0733 62.9064 50.4834 63.5392 50.8546 64.1954L50.96 64.3946C51.4561 65.3516 51.8585 66.3594 52.1592 67.3946C52.7569 69.211 53.0069 71.1212 52.8975 73.0313C52.7998 74.6329 52.9873 76.2383 53.46 77.7696L53.4795 77.8399C53.503 77.9259 53.5342 78.0196 53.5655 78.1251H53.5616C54.0264 79.7853 54.8077 81.3439 55.8546 82.7189C57.0148 84.2345 57.878 85.9572 58.3976 87.7931C58.6476 88.5978 58.8429 89.414 58.9796 90.246Z" fill="black"/>
<path d="M64.0899 88.8872C63.5469 89.0825 62.9961 89.2661 62.4415 89.4301H62.4376C62.3204 88.52 62.1173 87.6176 61.8399 86.7426C61.3751 85.0785 60.5938 83.5199 59.5469 82.1488C57.2852 79.0394 56.1289 75.2621 56.2696 71.4218C56.3712 69.6991 56.1485 67.9687 55.6055 66.328C55.1407 64.6678 54.3594 63.1092 53.3125 61.7382C52.1523 60.2148 51.293 58.4882 50.7734 56.6484C50.1758 54.832 49.9258 52.9218 50.0352 51.0117C50.0508 50.4297 50.0664 49.8633 50.0234 49.2265C49.9883 48.6797 49.9141 48.1327 49.8008 47.5937C49.7813 47.5 49.7617 47.4023 49.7383 47.3047L51.4024 46.9336C51.4141 46.9766 51.4219 47.0195 51.4297 47.0586H51.4336C51.5547 47.6055 51.6407 48.1563 51.6954 48.7148C51.7618 49.496 51.7774 50.2773 51.7422 51.0586C51.6368 52.7813 51.8633 54.5117 52.4063 56.1484C52.8711 57.8125 53.6485 59.3711 54.6993 60.7422C55.8595 62.2656 56.7188 63.9922 57.2384 65.832C57.836 67.6484 58.086 69.5586 57.9767 71.4687C57.8478 74.9375 58.8907 78.3515 60.9337 81.1562C62.0939 82.6757 62.9532 84.4023 63.4728 86.2421C63.7462 87.1054 63.9492 87.9927 64.0899 88.8872Z" fill="black"/>
<path d="M69.0392 86.5781C68.5196 86.8789 67.9923 87.1641 67.4572 87.4336C67.3322 86.6758 67.1525 85.9258 66.922 85.1914C66.4572 83.5273 65.6759 81.9687 64.629 80.6016C63.4688 79.0782 62.6095 77.3516 62.0899 75.5118C61.4922 73.6954 61.2422 71.7852 61.3516 69.8751C61.4571 68.1524 61.2305 66.422 60.6876 64.7813C60.2227 63.1211 59.4454 61.5586 58.3946 60.1875C57.2344 58.668 56.3751 56.9414 55.8555 55.1016C55.2578 53.2852 55.0078 51.3711 55.1172 49.4649C55.1328 48.8829 55.1484 48.3204 55.1055 47.6797L55.1094 47.6758C55.0664 47.0899 54.9844 46.5078 54.8633 45.9336C54.8477 45.8594 54.832 45.7813 54.8125 45.7031L56.4766 45.3242L56.4922 45.3945C56.625 45.9766 56.7188 46.5703 56.7813 47.1679C56.8477 47.9453 56.8633 48.7304 56.8243 49.5117C56.7227 51.2344 56.9453 52.9609 57.4883 54.6015C57.9532 56.2617 58.7344 57.8203 59.7852 59.1913C60.9414 60.7147 61.8008 62.4413 62.3204 64.2811C62.9181 66.0975 63.172 68.0116 63.0587 69.9178C62.9337 73.3866 63.9728 76.7967 66.0157 79.6014C67.1759 81.1209 68.0352 82.8475 68.5548 84.6873C68.7696 85.3983 68.9259 86.0156 69.0392 86.5781Z" fill="black"/>
<path d="M50.3912 84.0233C49.8482 85.6639 49.6217 87.3905 49.7271 89.1171C49.7389 89.5506 49.7506 89.9882 49.7428 90.4609C49.1685 90.3866 48.6022 90.3007 48.0436 90.1952C48.0436 89.8437 48.0358 89.5077 48.0279 89.164H48.024C47.9147 87.2538 48.1647 85.3437 48.7623 83.5273C49.149 82.1601 49.7272 80.8515 50.4732 79.6445C50.7037 80.3477 50.9732 81.0351 51.2818 81.707C50.9224 82.4531 50.6256 83.2303 50.3912 84.0233Z" fill="black"/>
<path d="M49.488 72.9262C49.4724 73.4575 49.4567 74.0121 49.4841 74.641H49.4802C48.9919 75.7933 48.3591 76.8832 47.6013 77.8793C45.5544 80.684 44.5154 84.0941 44.6443 87.5629C44.6599 88.1332 44.6755 88.7113 44.6443 89.3637C44.074 89.188 43.5115 88.9965 42.9568 88.7934C42.9646 88.3872 42.9568 88.0044 42.9412 87.6137V87.6098C42.8005 83.77 43.9568 79.9926 46.2185 76.8868C47.2654 75.5118 48.0427 73.9532 48.5115 72.293C48.8279 71.3047 49.0388 70.2891 49.1443 69.2578C49.449 70.4531 49.5661 71.6918 49.488 72.9262Z" fill="black"/>
<path d="M45.9103 62.899C45.7892 63.7935 45.754 64.6998 45.8009 65.6021C45.9103 67.5083 45.6603 69.4224 45.0626 71.2388C44.5431 73.0786 43.6837 74.8052 42.5235 76.3247C40.4805 79.1333 39.4376 82.5435 39.5665 86.0122C39.5782 86.4262 39.59 86.8481 39.5821 87.3013C39.0001 87.0005 38.4298 86.6841 37.8673 86.3481C37.8673 86.2544 37.8634 86.1567 37.8595 86.063V86.0591C37.7228 82.2193 38.8751 78.4419 41.1368 75.3321C42.1876 73.961 42.9649 72.4024 43.4298 70.7383C43.9728 69.0977 44.1994 67.3711 44.0939 65.6485C43.9923 63.9063 44.1955 62.1563 44.6955 60.4844C45.0275 61.3242 45.4338 62.1333 45.9103 62.899Z" fill="black"/>
<path d="M41.3868 58.961C40.8438 60.5977 40.6173 62.3282 40.7227 64.0508C40.8321 65.961 40.5821 67.8711 39.9845 69.6875C39.4649 71.5273 38.6017 73.2539 37.4454 74.7773C36.3946 76.1484 35.6173 77.707 35.1524 79.3711C34.6563 80.8555 34.4258 82.4219 34.4766 83.9883C33.8985 83.5274 33.3399 83.043 32.7969 82.543V82.5391C32.8906 81.293 33.1328 80.0625 33.5195 78.8711C34.0391 77.0313 34.8984 75.3047 36.0586 73.7852C37.1055 72.4141 37.8828 70.8516 38.3516 69.1914C38.8946 67.5508 39.1212 65.8203 39.0157 64.0976C38.9063 62.1874 39.1563 60.2773 39.754 58.4609C40.2696 56.6211 41.1329 54.8945 42.2892 53.375L43.2384 53.0859C43.2228 53.6953 43.2423 54.3047 43.2892 54.914C42.4337 56.1445 41.7891 57.5118 41.3868 58.961Z" fill="black"/>
<path d="M73.6759 83.2774C73.2111 83.6797 72.7267 84.0704 72.2306 84.4454C72.1642 84.1915 72.0861 83.922 72.0001 83.6368L72.0041 83.6407C71.5353 81.9766 70.758 80.418 69.7072 79.0469C68.551 77.5235 67.6877 75.7969 67.172 73.9571C66.5704 72.1407 66.3204 70.2305 66.4337 68.3204C66.5352 66.5977 66.3087 64.8673 65.7657 63.2266C65.3009 61.5664 64.5235 60.0039 63.4727 58.6328C62.3165 57.1133 61.4532 55.3867 60.9375 53.5469C60.3398 51.7305 60.0859 49.8164 60.1992 47.9102C60.2148 47.3282 60.2305 46.7657 60.1875 46.125V46.1211C60.1445 45.4961 60.0547 44.875 59.9141 44.2617C59.9023 44.207 59.8906 44.1484 59.875 44.0938L61.5391 43.7109V43.7266H61.543C61.6875 44.3477 61.793 44.9766 61.8555 45.6133C61.9219 46.3906 61.9375 47.1758 61.8985 47.9571C61.7969 49.6798 62.0235 51.4102 62.5664 53.0469C63.0313 54.711 63.8086 56.2696 64.8594 57.6407C66.0196 59.1641 66.8789 60.8907 67.3985 62.7305C68.0001 64.5469 68.2501 66.4571 68.1407 68.3672C68.0353 70.0938 68.2579 71.8203 68.8048 73.461C69.2696 75.1212 70.0509 76.6837 71.1017 78.0548C72.2579 79.5743 73.1173 81.3009 73.6369 83.1407L73.6759 83.2774Z" fill="black"/>
<path d="M85.8978 46.3742C85.097 44.4797 84.1322 42.6594 83.0111 40.9367L81.2923 41.4601C85.0657 47.0656 87.0384 53.6871 86.9485 60.4401C86.8625 67.1979 84.718 73.7641 80.8001 79.2681C78.9642 81.8501 76.7728 84.1548 74.2923 86.1197L74.1165 86.2564C73.6438 86.6236 73.1634 86.9791 72.6712 87.3228C71.9524 87.8228 71.2103 88.2994 70.4603 88.7408C70.0814 88.9635 69.6986 89.1783 69.308 89.3854C68.8314 89.6393 68.347 89.8815 67.8627 90.1119L67.7728 90.1549L67.5853 90.2447V90.2408C66.4876 90.7486 65.3665 91.194 64.222 91.5767L64.0228 91.6432L63.933 91.6705C63.4603 91.8228 62.9838 91.9674 62.5033 92.1002C61.3978 92.4049 60.2806 92.651 59.1517 92.8385C58.5853 92.9322 58.0111 93.0142 57.4369 93.0767C54.7807 93.3775 52.0931 93.3619 49.4369 93.026C48.8705 92.9556 48.308 92.8697 47.7455 92.7682H47.7494C46.5697 92.5572 45.4017 92.2838 44.2533 91.9478C43.9564 91.8619 43.6634 91.7721 43.3705 91.6744C43.1205 91.5924 42.8705 91.5103 42.6244 91.4205C41.5775 91.0533 40.5541 90.6353 39.5541 90.1666L39.433 90.108L39.2572 90.026C38.726 89.7721 38.1986 89.4986 37.6791 89.2135C37.3939 89.0572 37.1127 88.901 36.8354 88.7369C35.9994 88.2525 35.1909 87.7252 34.3979 87.1666C33.9838 86.8736 33.5736 86.5689 33.1752 86.2564C33.0424 86.1549 32.9134 86.0494 32.7845 85.9439C29.0306 82.9244 25.972 79.1275 23.8236 74.8109C22.6634 72.4867 21.7845 70.0297 21.1986 67.4984C18.9213 57.6117 21.2768 47.2254 27.5892 39.2794C33.9056 31.338 43.4952 26.7054 53.6442 26.6974C60.277 26.6896 66.7572 28.6779 72.2492 32.3966L74.1398 31.6154C66.3898 26.0334 56.6948 23.8537 47.3038 25.592C37.9093 27.3264 29.6318 32.8225 24.3898 40.807C19.1478 48.7915 17.3976 58.573 19.5382 67.881C20.1554 70.5451 21.0812 73.1271 22.2999 75.5724C25.339 81.674 30.089 86.7604 35.9719 90.2134C36.8157 90.7134 37.6867 91.1704 38.5735 91.5923L38.7103 91.6548H38.7064C46.7298 95.4321 55.8824 96.0337 64.3314 93.3384L64.4603 93.2954V93.2993C65.8744 92.8384 67.2572 92.2915 68.597 91.6548L68.7493 91.5845C69.6282 91.1626 70.4915 90.7017 71.3274 90.2134H71.3313C78.3625 86.0962 83.7413 79.6544 86.5343 71.9984C87.0265 70.6546 87.4328 69.2796 87.757 67.8812C88.3508 65.2953 88.6476 62.6507 88.6476 59.9984C88.6594 55.3187 87.722 50.6867 85.8978 46.3742Z" fill="black"/>
<path d="M91.055 36.6992L82.0003 39.4609L80.2464 39.9999L61.8594 45.6132C61.7969 44.9765 61.6914 44.3476 61.5469 43.7265L78.6839 38.0781L80.4534 37.4922L90.2776 34.2539L91.055 36.6992Z" fill="black"/>
<path d="M31.7422 51.008L90.3982 26.75L91.3513 29.125L32.1753 52.09L31.7422 51.008Z" fill="black"/>
</svg>
