<svg width="74" height="70" viewBox="0 0 74 70" fill="none" xmlns="http://www.w3.org/2000/svg">
<g clip-path="url(#clip0_62_1677)">
<path d="M26.1086 26.0353L12.3506 30.2345L11.999 29.1251L25.937 24.5312C26.0151 24.9609 26.0737 25.3945 26.1011 25.8321C26.1011 25.8985 26.1047 25.9689 26.1086 26.0353Z" fill="black"/>
<path d="M40.9796 65.246C40.421 65.3437 39.8585 65.4257 39.2882 65.4921C39.1632 64.7499 38.9874 64.0116 38.7608 63.2929C38.296 61.6288 37.5186 60.0702 36.4678 58.6991C35.3116 57.1796 34.4483 55.453 33.9326 53.6132C33.8897 53.4726 33.8545 53.3476 33.8194 53.2343L33.7881 53.1171H33.7842C33.292 51.4491 33.0889 49.7109 33.1944 47.9726C33.2959 46.2499 33.0733 44.5234 32.5264 42.8828C32.2412 41.8867 31.8467 40.9258 31.3584 40.0156L31.3232 39.9531V39.9492C30.9951 39.375 30.6318 38.8203 30.2334 38.289C29.0772 36.7695 28.2178 35.0507 27.6982 33.2148V33.1992L27.6826 33.1445L27.6631 33.0859C27.0928 31.3047 26.8545 29.4297 26.9639 27.5625C26.9795 26.9805 26.9951 26.418 26.9521 25.7773H26.9561C26.9209 25.2695 26.8545 24.7617 26.7568 24.2617C26.7334 24.1484 26.71 24.0313 26.6865 23.9102L28.3545 23.543C28.3662 23.6055 28.3819 23.6641 28.3936 23.7227H28.3897C28.4951 24.2344 28.5733 24.75 28.628 25.2657C28.6944 26.0469 28.71 26.8282 28.6709 27.6095C28.5655 29.3283 28.792 31.0548 29.335 32.6915L29.378 32.8204V32.8321V32.8282C29.8389 34.4454 30.6046 35.9649 31.6241 37.3009C32.0733 37.9064 32.4834 38.5392 32.8546 39.1954L32.96 39.3946C33.4561 40.3516 33.8585 41.3594 34.1592 42.3946C34.7569 44.211 35.0069 46.1212 34.8975 48.0313C34.7998 49.6329 34.9873 51.2383 35.46 52.7696L35.4795 52.8399C35.503 52.9259 35.5342 53.0196 35.5655 53.1251H35.5616C36.0264 54.7853 36.8077 56.3439 37.8546 57.7189C39.0148 59.2345 39.878 60.9572 40.3976 62.7931C40.6476 63.5978 40.8429 64.414 40.9796 65.246Z" fill="black"/>
<path d="M46.0899 63.8872C45.5469 64.0825 44.9961 64.2661 44.4415 64.4301H44.4376C44.3204 63.52 44.1173 62.6176 43.8399 61.7426C43.3751 60.0785 42.5938 58.5199 41.5469 57.1488C39.2852 54.0394 38.1289 50.2621 38.2696 46.4218C38.3712 44.6991 38.1485 42.9687 37.6055 41.328C37.1407 39.6678 36.3594 38.1092 35.3125 36.7382C34.1523 35.2148 33.293 33.4882 32.7734 31.6484C32.1758 29.832 31.9258 27.9218 32.0352 26.0117C32.0508 25.4297 32.0664 24.8633 32.0234 24.2265C31.9883 23.6797 31.9141 23.1327 31.8008 22.5937C31.7813 22.5 31.7617 22.4023 31.7383 22.3047L33.4024 21.9336C33.4141 21.9766 33.4219 22.0195 33.4297 22.0586H33.4336C33.5547 22.6055 33.6407 23.1563 33.6954 23.7148C33.7618 24.496 33.7774 25.2773 33.7422 26.0586C33.6368 27.7813 33.8633 29.5117 34.4063 31.1484C34.8711 32.8125 35.6485 34.3711 36.6993 35.7422C37.8595 37.2656 38.7188 38.9922 39.2384 40.832C39.836 42.6484 40.086 44.5586 39.9767 46.4687C39.8478 49.9375 40.8907 53.3515 42.9337 56.1562C44.0939 57.6757 44.9532 59.4023 45.4728 61.2421C45.7462 62.1054 45.9492 62.9927 46.0899 63.8872Z" fill="black"/>
<path d="M51.0392 61.5781C50.5196 61.8789 49.9923 62.1641 49.4572 62.4336C49.3322 61.6758 49.1525 60.9258 48.922 60.1914C48.4572 58.5273 47.6759 56.9687 46.629 55.6016C45.4688 54.0782 44.6095 52.3516 44.0899 50.5118C43.4922 48.6954 43.2422 46.7852 43.3516 44.8751C43.4571 43.1524 43.2305 41.422 42.6876 39.7813C42.2227 38.1211 41.4454 36.5586 40.3946 35.1875C39.2344 33.668 38.3751 31.9414 37.8555 30.1016C37.2578 28.2852 37.0078 26.3711 37.1172 24.4649C37.1328 23.8829 37.1484 23.3204 37.1055 22.6797L37.1094 22.6758C37.0664 22.0899 36.9844 21.5078 36.8633 20.9336C36.8477 20.8594 36.832 20.7813 36.8125 20.7031L38.4766 20.3242L38.4922 20.3945C38.625 20.9766 38.7188 21.5703 38.7813 22.1679C38.8477 22.9453 38.8633 23.7304 38.8243 24.5117C38.7227 26.2344 38.9453 27.9609 39.4883 29.6015C39.9532 31.2617 40.7344 32.8203 41.7852 34.1913C42.9414 35.7147 43.8008 37.4413 44.3204 39.2811C44.9181 41.0975 45.172 43.0116 45.0587 44.9178C44.9337 48.3866 45.9728 51.7967 48.0157 54.6014C49.1759 56.1209 50.0352 57.8475 50.5548 59.6873C50.7696 60.3983 50.9259 61.0156 51.0392 61.5781Z" fill="black"/>
<path d="M32.3912 59.0233C31.8482 60.6639 31.6217 62.3905 31.7271 64.1171C31.7389 64.5506 31.7506 64.9882 31.7428 65.4609C31.1685 65.3866 30.6022 65.3007 30.0436 65.1952C30.0436 64.8437 30.0358 64.5077 30.0279 64.164H30.024C29.9147 62.2538 30.1647 60.3437 30.7623 58.5273C31.149 57.1601 31.7272 55.8515 32.4732 54.6445C32.7037 55.3477 32.9732 56.0351 33.2818 56.707C32.9224 57.4531 32.6256 58.2303 32.3912 59.0233Z" fill="black"/>
<path d="M31.488 47.9262C31.4724 48.4575 31.4567 49.0121 31.4841 49.641H31.4802C30.9919 50.7933 30.3591 51.8832 29.6013 52.8793C27.5544 55.684 26.5154 59.0941 26.6443 62.5629C26.6599 63.1332 26.6755 63.7113 26.6443 64.3637C26.074 64.188 25.5115 63.9965 24.9568 63.7934C24.9646 63.3872 24.9568 63.0044 24.9412 62.6137V62.6098C24.8005 58.77 25.9568 54.9926 28.2185 51.8868C29.2654 50.5118 30.0427 48.9532 30.5115 47.293C30.8279 46.3047 31.0388 45.2891 31.1443 44.2578C31.449 45.4531 31.5661 46.6918 31.488 47.9262Z" fill="black"/>
<path d="M27.9103 37.899C27.7892 38.7935 27.754 39.6998 27.8009 40.6021C27.9103 42.5083 27.6603 44.4224 27.0626 46.2388C26.5431 48.0786 25.6837 49.8052 24.5235 51.3247C22.4805 54.1333 21.4376 57.5435 21.5665 61.0122C21.5782 61.4262 21.59 61.8481 21.5821 62.3013C21.0001 62.0005 20.4298 61.6841 19.8673 61.3481C19.8673 61.2544 19.8634 61.1567 19.8595 61.063V61.0591C19.7228 57.2193 20.8751 53.4419 23.1368 50.3321C24.1876 48.961 24.9649 47.4024 25.4298 45.7383C25.9728 44.0977 26.1994 42.3711 26.0939 40.6485C25.9923 38.9063 26.1955 37.1563 26.6955 35.4844C27.0275 36.3242 27.4338 37.1333 27.9103 37.899Z" fill="black"/>
<path d="M23.3868 33.961C22.8438 35.5977 22.6173 37.3282 22.7227 39.0508C22.8321 40.961 22.5821 42.8711 21.9845 44.6875C21.4649 46.5273 20.6017 48.2539 19.4454 49.7773C18.3946 51.1484 17.6173 52.707 17.1524 54.3711C16.6563 55.8555 16.4258 57.4219 16.4766 58.9883C15.8985 58.5274 15.3399 58.043 14.7969 57.543V57.5391C14.8906 56.293 15.1328 55.0625 15.5195 53.8711C16.0391 52.0313 16.8984 50.3047 18.0586 48.7852C19.1055 47.4141 19.8828 45.8516 20.3516 44.1914C20.8946 42.5508 21.1212 40.8203 21.0157 39.0976C20.9063 37.1874 21.1563 35.2773 21.754 33.4609C22.2696 31.6211 23.1329 29.8945 24.2892 28.375L25.2384 28.0859C25.2228 28.6953 25.2423 29.3047 25.2892 29.914C24.4337 31.1445 23.7891 32.5118 23.3868 33.961Z" fill="black"/>
<path d="M55.6759 58.2774C55.2111 58.6797 54.7267 59.0704 54.2306 59.4454C54.1642 59.1915 54.0861 58.922 54.0001 58.6368L54.0041 58.6407C53.5353 56.9766 52.758 55.418 51.7072 54.0469C50.551 52.5235 49.6877 50.7969 49.172 48.9571C48.5704 47.1407 48.3204 45.2305 48.4337 43.3204C48.5352 41.5977 48.3087 39.8673 47.7657 38.2266C47.3009 36.5664 46.5235 35.0039 45.4727 33.6328C44.3165 32.1133 43.4532 30.3867 42.9375 28.5469C42.3398 26.7305 42.0859 24.8164 42.1992 22.9102C42.2148 22.3282 42.2305 21.7657 42.1875 21.125V21.1211C42.1445 20.4961 42.0547 19.875 41.9141 19.2617C41.9023 19.207 41.8906 19.1484 41.875 19.0938L43.5391 18.7109V18.7266H43.543C43.6875 19.3477 43.793 19.9766 43.8555 20.6133C43.9219 21.3906 43.9375 22.1758 43.8985 22.9571C43.7969 24.6798 44.0235 26.4102 44.5664 28.0469C45.0313 29.711 45.8086 31.2696 46.8594 32.6407C48.0196 34.1641 48.8789 35.8907 49.3985 37.7305C50.0001 39.5469 50.2501 41.4571 50.1407 43.3672C50.0353 45.0938 50.2579 46.8203 50.8048 48.461C51.2696 50.1212 52.0509 51.6837 53.1017 53.0548C54.2579 54.5743 55.1173 56.3009 55.6369 58.1407L55.6759 58.2774Z" fill="black"/>
<path d="M67.8978 21.3742C67.097 19.4797 66.1322 17.6594 65.0111 15.9367L63.2923 16.4601C67.0657 22.0656 69.0384 28.6871 68.9485 35.4401C68.8625 42.1979 66.718 48.7641 62.8001 54.2681C60.9642 56.8501 58.7728 59.1548 56.2923 61.1197L56.1165 61.2564C55.6438 61.6236 55.1634 61.9791 54.6712 62.3228C53.9524 62.8228 53.2103 63.2994 52.4603 63.7408C52.0814 63.9635 51.6986 64.1783 51.308 64.3854C50.8314 64.6393 50.347 64.8815 49.8627 65.1119L49.7728 65.1549L49.5853 65.2447V65.2408C48.4876 65.7486 47.3665 66.194 46.222 66.5767L46.0228 66.6432L45.933 66.6705C45.4603 66.8228 44.9838 66.9674 44.5033 67.1002C43.3978 67.4049 42.2806 67.651 41.1517 67.8385C40.5853 67.9322 40.0111 68.0142 39.4369 68.0767C36.7807 68.3775 34.0931 68.3619 31.4369 68.026C30.8705 67.9556 30.308 67.8697 29.7455 67.7682H29.7494C28.5697 67.5572 27.4017 67.2838 26.2533 66.9478C25.9564 66.8619 25.6634 66.7721 25.3705 66.6744C25.1205 66.5924 24.8705 66.5103 24.6244 66.4205C23.5775 66.0533 22.5541 65.6353 21.5541 65.1666L21.433 65.108L21.2572 65.026C20.726 64.7721 20.1986 64.4986 19.6791 64.2135C19.3939 64.0572 19.1127 63.901 18.8354 63.7369C17.9994 63.2525 17.1909 62.7252 16.3979 62.1666C15.9838 61.8736 15.5736 61.5689 15.1752 61.2564C15.0424 61.1549 14.9134 61.0494 14.7845 60.9439C11.0306 57.9244 7.97204 54.1275 5.82364 49.8109C4.66344 47.4867 3.78454 45.0297 3.19864 42.4984C0.921341 32.6117 3.27677 22.2254 9.58924 14.2794C15.9056 6.33804 25.4952 1.70544 35.6442 1.69744C42.277 1.68963 48.7572 3.67794 54.2492 7.39664L56.1398 6.61539C48.3898 1.03339 38.6948 -1.14631 29.3038 0.591993C19.9093 2.32639 11.6318 7.82249 6.38984 15.807C1.14784 23.7915 -0.602359 33.573 1.53824 42.881C2.15543 45.5451 3.08124 48.1271 4.29994 50.5724C7.33904 56.674 12.089 61.7604 17.9719 65.2134C18.8157 65.7134 19.6867 66.1704 20.5735 66.5923L20.7103 66.6548H20.7064C28.7298 70.4321 37.8824 71.0337 46.3314 68.3384L46.4603 68.2954V68.2993C47.8744 67.8384 49.2572 67.2915 50.597 66.6548L50.7493 66.5845C51.6282 66.1626 52.4915 65.7017 53.3274 65.2134H53.3313C60.3625 61.0962 65.7413 54.6544 68.5343 46.9984C69.0265 45.6546 69.4328 44.2796 69.757 42.8812C70.3508 40.2953 70.6476 37.6507 70.6476 34.9984C70.6594 30.3187 69.722 25.6867 67.8978 21.3742Z" fill="black"/>
<path d="M73.055 11.6992L64.0003 14.4609L62.2464 14.9999L43.8594 20.6132C43.7969 19.9765 43.6914 19.3476 43.5469 18.7265L60.6839 13.0781L62.4534 12.4922L72.2776 9.25391L73.055 11.6992Z" fill="black"/>
<path d="M13.7422 26.008L72.3982 1.75L73.3513 4.125L14.1753 27.09L13.7422 26.008Z" fill="black"/>
</g>
<defs>
<clipPath id="clip0_62_1677">
<rect width="74" height="70" fill="white"/>
</clipPath>
</defs>
</svg>
